<?xml version="1.0" standalone="no"?>
<!DOCTYPE svg PUBLIC "-//W3C//DTD SVG 20010904//EN"
 "http://www.w3.org/TR/2001/REC-SVG-20010904/DTD/svg10.dtd">
<svg version="1.0" xmlns="http://www.w3.org/2000/svg"
 width="265.000000pt" height="263.000000pt" viewBox="0 0 265.000000 263.000000"
 preserveAspectRatio="xMidYMid meet">

<g transform="translate(0.000000,263.000000) scale(0.100000,-0.100000)"
fill="#000000" stroke="none">
<path d="M180 2440 c-18 -18 -20 -33 -20 -173 0 -210 -13 -197 195 -197 135 0
166 3 179 16 13 13 16 44 16 179 0 208 13 195 -197 195 -140 0 -155 -2 -173
-20z m318 -177 l-3 -138 -137 -3 -138 -3 0 141 0 140 140 0 141 0 -3 -137z"/>
<path d="M267 2363 c-4 -3 -7 -48 -7 -100 l0 -93 95 0 95 0 0 100 0 100 -88 0
c-49 0 -92 -3 -95 -7z"/>
<path d="M2090 2440 c-18 -18 -20 -33 -20 -179 0 -132 3 -162 16 -175 13 -13
44 -16 178 -16 145 0 165 2 179 18 14 16 17 43 17 175 0 208 11 197 -195 197
-142 0 -157 -2 -175 -20z m310 -180 l0 -141 -137 3 -138 3 -3 138 -3 137 141
0 140 0 0 -140z"/>
<path d="M2170 2270 l0 -100 95 0 96 0 -3 98 -3 97 -92 3 -93 3 0 -101z"/>
<path d="M680 2420 c0 -23 4 -30 20 -30 18 0 20 -7 20 -79 0 -79 0 -80 28 -83
26 -3 27 -6 30 -60 l3 -58 -31 0 c-27 0 -30 -3 -30 -30 0 -23 -5 -30 -19 -30
-14 0 -21 8 -23 28 -2 21 -9 28 -30 30 -28 3 -28 2 -28 -52 l0 -56 -55 0 c-54
0 -55 0 -55 -30 0 -27 3 -30 30 -30 23 0 30 -4 30 -20 0 -16 -7 -20 -30 -20
-27 0 -30 -3 -30 -30 0 -30 -1 -30 -55 -30 l-55 0 0 -55 c0 -54 0 -55 -30 -55
-30 0 -30 1 -30 55 0 52 1 55 25 55 21 0 25 5 25 31 0 26 -3 30 -22 27 -17 -2
-24 -11 -26 -30 -3 -22 -9 -28 -28 -28 -22 0 -24 -3 -24 -55 0 -52 1 -55 25
-55 20 0 25 -5 25 -24 0 -19 6 -25 28 -28 21 -2 28 -9 30 -30 3 -23 -1 -27
-25 -30 -22 -2 -29 -9 -31 -30 -3 -22 -9 -28 -28 -28 -19 0 -24 -5 -24 -25 0
-20 5 -25 25 -25 21 0 25 -5 25 -30 0 -25 -4 -30 -25 -30 l-25 0 0 -140 0
-140 -60 0 -60 0 0 -55 c0 -54 0 -55 30 -55 27 0 30 3 30 30 0 30 1 30 55 30
52 0 55 1 55 25 0 20 5 25 25 25 20 0 25 5 25 25 0 20 -5 25 -25 25 -24 0 -25
3 -25 60 0 57 1 60 25 60 20 0 25 5 25 25 0 20 -5 25 -25 25 -21 0 -25 5 -25
30 0 25 4 30 25 30 24 0 25 3 25 55 0 54 0 55 30 55 l30 0 0 60 0 60 30 0 c26
0 30 4 30 26 0 22 4 25 28 22 21 -2 27 -8 27 -28 0 -20 -6 -26 -27 -28 -22 -3
-28 -9 -28 -27 0 -18 6 -24 28 -27 21 -2 28 -9 30 -30 3 -22 9 -28 28 -28 19
0 24 -5 24 -25 0 -21 5 -25 30 -25 25 0 30 4 30 25 0 18 5 25 20 25 19 0 20
-7 20 -110 l0 -110 30 0 c25 0 30 4 30 25 0 24 3 25 55 25 52 0 55 -1 55 -25
0 -21 5 -25 31 -25 31 0 31 1 25 38 -3 20 -6 45 -6 55 0 14 -9 17 -56 17 -54
0 -55 0 -52 28 3 25 7 27 56 30 48 3 52 5 52 28 0 19 -5 24 -25 24 -21 0 -25
5 -25 30 0 25 4 30 25 30 20 0 25 5 25 25 0 20 -5 25 -25 25 -20 0 -25 -5 -25
-25 0 -20 -5 -25 -25 -25 -21 0 -25 -5 -25 -30 0 -27 -3 -30 -30 -30 -27 0
-30 3 -30 30 0 25 4 30 25 30 20 0 25 5 25 25 0 24 -3 25 -55 25 -52 0 -55 -1
-55 -25 0 -18 -5 -25 -20 -25 -16 0 -20 7 -20 30 0 23 4 30 20 30 15 0 20 7
20 25 0 18 -5 25 -20 25 -15 0 -20 7 -20 25 0 21 -5 25 -30 25 l-30 0 0 79 c0
79 0 80 28 83 21 2 28 9 30 31 2 19 9 27 23 27 15 0 19 -7 19 -31 0 -27 3 -30
28 -27 27 3 27 4 30 86 l3 82 29 0 c25 0 30 -4 30 -25 0 -20 5 -25 25 -25 20
0 25 5 25 26 0 22 4 25 28 22 19 -2 28 -9 30 -25 3 -17 10 -23 28 -23 22 0 24
3 24 55 l0 55 -55 0 c-52 0 -55 2 -55 24 0 19 -6 25 -27 28 -22 2 -28 8 -28
28 0 20 6 26 28 28 26 3 27 6 27 58 0 51 -2 54 -24 54 -19 0 -25 -6 -28 -27
-2 -22 -9 -29 -30 -31 -25 -3 -28 0 -28 27 0 26 4 31 25 31 21 0 25 5 25 30 0
25 -4 30 -25 30 -21 0 -25 -5 -25 -30 0 -27 -3 -30 -30 -30 -27 0 -30 3 -30
30 0 23 -4 30 -20 30 -16 0 -20 -7 -20 -30z m-112 -607 c-2 -22 -9 -29 -30
-31 -25 -3 -28 0 -28 27 0 28 3 31 31 31 27 0 30 -3 27 -27z m112 -223 c0 -27
-3 -30 -30 -30 -27 0 -30 3 -30 30 0 27 3 30 30 30 27 0 30 -3 30 -30z"/>
<path d="M950 2376 c0 -42 0 -79 0 -83 0 -5 25 -9 55 -11 l55 -3 0 -114 0
-115 -30 0 c-25 0 -30 -4 -30 -25 0 -21 5 -25 30 -25 27 0 30 -3 30 -30 l0
-30 -85 0 -85 0 0 30 c0 25 -4 30 -25 30 -23 0 -25 -3 -25 -50 0 -49 -1 -50
-30 -50 l-30 0 0 -85 c0 -83 0 -85 24 -85 19 0 25 6 28 28 2 21 9 28 31 30 26
3 27 6 27 58 0 54 0 55 28 52 26 -3 27 -5 27 -58 0 -53 -1 -55 -27 -58 -22 -3
-28 -9 -28 -27 0 -18 6 -24 28 -27 19 -2 28 -9 30 -25 3 -21 9 -23 58 -23 53
0 54 0 54 -30 l0 -30 69 0 c74 0 102 14 96 47 -2 10 -4 39 -4 66 -1 43 -3 47
-26 47 -24 0 -25 -3 -25 -56 0 -54 0 -55 -27 -52 -22 2 -29 9 -31 31 -3 26 -6
27 -58 27 l-54 0 0 85 0 85 30 0 c30 0 30 -1 30 -55 0 -52 1 -55 25 -55 20 0
25 5 25 25 0 21 5 25 30 25 27 0 30 3 30 30 0 30 1 30 55 30 48 0 55 2 55 20
0 14 -7 20 -24 20 -13 0 -26 7 -30 15 -9 25 4 45 30 45 19 0 24 5 24 24 0 19
-6 25 -27 28 -22 2 -28 8 -28 28 0 21 5 26 33 28 29 3 32 1 32 -22 0 -19 5
-26 20 -26 15 0 20 7 20 25 0 21 5 25 30 25 17 0 31 -4 31 -10 1 -5 2 -16 3
-22 0 -7 13 -14 29 -16 23 -3 27 0 27 22 0 21 5 26 25 26 21 0 25 5 25 30 l0
30 -165 0 -165 0 0 24 c0 19 -6 25 -27 28 -22 2 -29 9 -31 31 -3 21 -9 27 -28
27 -19 0 -24 5 -24 25 0 21 -5 25 -30 25 -27 0 -30 3 -30 29 0 25 4 30 28 33
21 2 27 8 27 28 0 23 -4 25 -52 28 l-53 3 0 -75z m220 -297 c0 -27 -3 -30 -27
-27 -22 2 -29 9 -31 31 -3 24 0 27 27 27 28 0 31 -3 31 -31z m0 -129 c0 -49
-1 -50 -30 -50 -29 0 -30 1 -30 50 0 49 1 50 30 50 29 0 30 -1 30 -50z"/>
<path d="M1120 2365 c0 -84 0 -85 25 -85 20 0 25 -5 25 -25 0 -25 1 -25 79
-25 75 0 80 1 83 23 2 16 11 23 31 25 21 3 27 9 27 28 0 22 -4 24 -49 24 -44
0 -50 -3 -53 -22 -3 -20 -10 -23 -61 -26 l-58 -3 3 28 c3 27 6 28 53 28 47 0
50 2 53 28 3 27 2 27 -52 27 -56 0 -56 0 -56 30 0 25 -4 30 -25 30 -25 0 -25
-1 -25 -85z"/>
<path d="M1457 2443 c-4 -3 -7 -17 -7 -30 0 -21 4 -23 55 -23 51 0 55 -2 55
-24 0 -26 14 -36 43 -28 10 3 17 14 17 28 0 22 4 24 55 24 l55 0 0 -55 0 -55
-55 0 -55 0 0 -54 c0 -52 -1 -55 -27 -58 -22 -2 -29 -9 -31 -30 -3 -22 -9 -28
-28 -28 -19 0 -24 -5 -24 -25 0 -20 5 -25 25 -25 20 0 25 5 25 25 0 21 5 25
30 25 l30 0 0 -85 c0 -84 0 -85 25 -85 24 0 24 0 27 113 l3 112 55 0 c53 0 55
-1 58 -27 3 -22 9 -28 28 -28 19 0 24 -5 24 -25 0 -21 5 -25 30 -25 25 0 30 4
30 25 0 18 5 25 20 25 15 0 20 -7 20 -25 0 -21 5 -25 30 -25 25 0 30 4 30 25
0 21 -5 25 -30 25 l-30 0 0 110 c0 103 -1 110 -20 110 -16 0 -20 7 -20 30 0
23 4 30 20 30 14 0 20 -7 20 -24 0 -17 7 -25 25 -28 30 -6 35 -2 35 29 0 19
-5 23 -30 23 -27 0 -30 3 -30 30 0 23 -4 30 -20 30 -16 0 -20 -7 -20 -30 0
-27 -3 -30 -30 -30 -27 0 -30 3 -30 30 l0 30 -188 0 c-104 0 -192 -3 -195 -7z
m381 -161 c3 -47 5 -51 30 -54 25 -3 27 -6 30 -60 l3 -58 -31 0 c-30 0 -30 0
-30 54 0 52 -1 55 -27 58 -25 3 -28 7 -31 47 -4 57 2 72 30 68 20 -3 23 -11
26 -55z"/>
<path d="M1399 2273 c0 -5 -2 -16 -4 -25 -2 -14 4 -18 26 -18 24 0 29 4 29 25
0 20 -5 25 -25 25 -14 0 -25 -3 -26 -7z"/>
<path d="M1510 2255 c0 -20 5 -25 25 -25 20 0 25 5 25 25 0 20 -5 25 -25 25
-20 0 -25 -5 -25 -25z"/>
<path d="M620 2195 c0 -23 3 -25 50 -25 47 0 50 2 50 25 0 23 -3 25 -50 25
-47 0 -50 -2 -50 -25z"/>
<path d="M1730 2085 c0 -20 5 -25 25 -25 20 0 25 5 25 25 0 20 -5 25 -25 25
-20 0 -25 -5 -25 -25z"/>
<path d="M1340 2025 c0 -20 5 -25 25 -25 20 0 25 5 25 25 0 20 -5 25 -25 25
-20 0 -25 -5 -25 -25z"/>
<path d="M1790 2025 c0 -21 -5 -25 -30 -25 l-30 0 0 -80 0 -80 -54 0 c-52 0
-55 1 -58 28 -2 21 -9 28 -30 30 -20 2 -28 9 -28 23 0 16 -7 19 -55 19 -54 0
-55 0 -55 30 0 25 -4 30 -24 30 -18 0 -25 -7 -29 -30 -5 -24 -12 -30 -32 -30
-23 0 -25 -3 -25 -50 0 -47 -2 -50 -25 -50 -34 0 -37 -47 -2 -52 19 -3 22 -10
25 -55 l3 -53 55 0 54 0 0 50 c0 49 -1 50 -30 50 -27 0 -30 3 -30 30 0 27 3
30 30 30 27 0 30 3 30 30 0 27 3 30 30 30 l30 0 0 -85 c0 -84 0 -85 25 -85 21
0 25 -5 25 -30 0 -30 -1 -30 -55 -30 -53 0 -55 -1 -54 -27 0 -24 9 -32 57 -56
31 -15 69 -27 85 -27 23 0 27 4 27 30 0 25 4 30 25 30 20 0 25 5 25 25 0 20
-5 25 -25 25 -21 0 -25 5 -25 30 0 25 4 30 24 30 19 0 25 6 28 28 2 21 8 27
28 27 20 0 26 -6 28 -27 3 -21 9 -27 30 -30 19 -2 28 -10 30 -25 5 -35 52 -32
52 2 0 21 5 25 30 25 30 0 30 -1 30 -54 0 -52 -1 -55 -27 -58 -26 -3 -28 -7
-31 -55 l-3 -53 50 0 c48 0 51 2 51 25 0 18 -5 25 -20 25 -16 0 -20 7 -20 30
0 23 5 30 19 30 14 0 21 -8 23 -27 l3 -28 113 -3 c112 -3 112 -3 112 -27 0
-20 5 -25 25 -25 20 0 25 5 25 25 0 20 -5 25 -25 25 -24 0 -24 2 -27 83 -3 80
-4 82 -28 82 -23 0 -25 -4 -28 -52 l-3 -53 -55 0 -54 0 0 55 0 55 -50 0 c-47
0 -50 1 -50 26 0 17 6 28 20 31 13 3 20 14 20 29 0 22 -4 24 -50 24 -49 0 -50
-1 -50 -31 0 -27 -3 -30 -27 -27 -27 3 -28 6 -31 61 l-3 57 111 0 110 0 0 -55
0 -55 110 0 110 0 0 105 0 105 -25 0 c-23 0 -25 -3 -25 -50 0 -49 -1 -50 -30
-50 -29 0 -30 1 -30 50 l0 51 -82 -3 c-82 -3 -83 -3 -86 -30 -3 -26 -6 -28
-53 -28 l-49 0 0 55 c0 52 -1 55 -25 55 -20 0 -25 -5 -25 -25z m270 -105 c0
-15 7 -20 25 -20 21 0 25 -5 25 -31 0 -27 -3 -30 -27 -27 -22 2 -29 9 -31 31
-3 21 -9 27 -28 27 -17 0 -24 5 -24 20 0 16 7 20 30 20 23 0 30 -4 30 -20z"/>
<path d="M290 1970 c0 -29 1 -30 50 -30 49 0 50 1 50 30 0 29 -1 30 -50 30
-49 0 -50 -1 -50 -30z"/>
<path d="M1290 1970 c0 -23 4 -30 20 -30 16 0 20 7 20 30 0 23 -4 30 -20 30
-16 0 -20 -7 -20 -30z"/>
<path d="M170 1920 c0 -16 7 -20 30 -20 23 0 30 4 30 20 0 16 -7 20 -30 20
-23 0 -30 -4 -30 -20z"/>
<path d="M400 1920 c0 -15 7 -20 25 -20 18 0 25 5 25 20 0 15 -7 20 -25 20
-18 0 -25 -5 -25 -20z"/>
<path d="M2280 1890 c0 -49 1 -50 30 -50 25 0 30 -4 30 -25 0 -20 5 -25 25
-25 24 0 25 3 25 55 0 54 0 55 30 55 23 0 30 4 30 20 0 18 -7 20 -85 20 l-85
0 0 -50z"/>
<path d="M680 1845 c0 -48 2 -55 20 -55 18 0 20 7 20 55 0 48 -2 55 -20 55
-18 0 -20 -7 -20 -55z"/>
<path d="M170 1755 c0 -21 5 -25 30 -25 25 0 30 4 30 25 0 21 -5 25 -30 25
-25 0 -30 -4 -30 -25z"/>
<path d="M2230 1670 l0 -110 25 0 c21 0 25 5 25 31 0 27 3 30 28 27 21 -2 28
-9 30 -30 3 -27 6 -28 58 -28 l54 0 0 86 0 85 -27 -3 c-22 -2 -29 -9 -31 -30
-3 -27 -6 -28 -58 -28 -53 0 -54 0 -54 30 0 25 4 30 25 30 20 0 25 5 25 25 0
23 -3 25 -50 25 l-50 0 0 -110z"/>
<path d="M170 1645 c0 -21 5 -25 30 -25 27 0 30 -3 30 -30 0 -27 -3 -30 -30
-30 -25 0 -30 -4 -30 -25 0 -21 5 -25 30 -25 25 0 30 4 30 25 0 20 5 25 25 25
21 0 25 5 25 30 0 25 -4 30 -25 30 -20 0 -25 5 -25 25 0 21 -5 25 -30 25 -25
0 -30 -4 -30 -25z"/>
<path d="M950 1591 c0 -26 4 -31 25 -31 21 0 25 -5 25 -30 0 -25 -4 -30 -25
-30 -20 0 -25 -5 -25 -25 0 -16 6 -25 15 -25 8 0 15 5 15 10 0 6 18 30 41 55
31 33 40 50 37 72 -3 26 -6 28 -55 31 l-53 3 0 -30z"/>
<path d="M1680 1591 c0 -26 4 -31 25 -31 20 0 25 -5 25 -25 0 -20 5 -25 25
-25 20 0 25 5 25 25 0 20 -5 25 -24 25 -19 0 -25 6 -28 28 -2 19 -9 28 -25 30
-20 3 -23 -1 -23 -27z"/>
<path d="M1227 1560 c-88 -23 -156 -74 -187 -142 -36 -80 -20 -150 51 -219
l48 -47 -15 -47 c-9 -25 -14 -49 -10 -52 3 -3 31 11 62 31 52 35 62 38 140 40
73 2 92 7 151 37 53 27 73 44 96 80 42 69 45 116 13 182 -27 57 -69 93 -140
122 -47 20 -158 28 -209 15z"/>
<path d="M510 1535 c0 -20 5 -25 25 -25 20 0 25 5 25 25 0 20 -5 25 -25 25
-20 0 -25 -5 -25 -25z"/>
<path d="M230 1475 c0 -20 5 -25 25 -25 20 0 25 5 25 25 0 20 -5 25 -25 25
-20 0 -25 -5 -25 -25z"/>
<path d="M570 1475 c0 -21 -5 -25 -30 -25 -27 0 -30 -3 -30 -30 0 -30 1 -30
55 -30 52 0 55 -1 55 -25 0 -21 5 -25 31 -25 l30 0 -3 53 c-3 48 -5 52 -30 55
-22 3 -28 9 -28 28 0 19 -5 24 -25 24 -20 0 -25 -5 -25 -25z"/>
<path d="M1790 1475 c0 -24 -2 -25 -71 -25 -64 0 -70 -2 -64 -17 26 -68 13
-163 -30 -227 l-24 -36 34 0 c29 0 34 4 37 28 3 27 4 27 86 30 l82 3 0 -31 c0
-27 3 -30 30 -30 25 0 30 -4 30 -25 0 -18 5 -25 20 -25 15 0 20 7 20 25 0 18
-5 25 -20 25 -16 0 -20 7 -20 30 0 29 1 30 50 30 47 0 50 2 50 25 0 23 -3 25
-50 25 -47 0 -50 2 -50 25 0 21 -5 25 -30 25 -26 0 -30 -4 -30 -26 0 -22 -4
-25 -27 -22 -20 2 -29 9 -31 26 -3 16 -10 22 -28 22 -20 0 -24 5 -24 30 0 30
1 30 55 30 l55 0 0 55 c0 52 -1 55 -25 55 -20 0 -25 -5 -25 -25z"/>
<path d="M1942 1448 c3 -49 5 -53 31 -56 25 -3 27 -6 27 -52 0 -46 2 -49 28
-52 21 -2 28 -9 30 -30 3 -22 9 -28 27 -28 18 0 24 6 27 28 2 21 8 27 28 27
20 0 26 -6 28 -27 3 -22 9 -28 27 -28 18 0 24 6 27 28 2 21 8 27 28 27 23 0
25 -4 28 -57 3 -53 5 -57 30 -60 19 -2 28 -10 30 -25 3 -21 9 -23 58 -23 51 0
54 1 54 25 0 21 -5 25 -30 25 -27 0 -30 3 -30 30 0 27 3 30 30 30 25 0 30 4
30 25 0 21 -5 25 -30 25 -27 0 -30 3 -30 30 0 27 3 30 30 30 25 0 30 4 30 25
0 21 -5 25 -30 25 -27 0 -30 3 -30 30 0 25 -4 30 -24 30 -19 0 -25 -6 -28 -27
-2 -22 -9 -29 -30 -31 -25 -3 -28 0 -28 27 0 26 4 31 25 31 20 0 25 5 25 25 0
20 -5 25 -25 25 -20 0 -25 -5 -25 -25 0 -24 -3 -25 -55 -25 -54 0 -55 0 -55
-30 0 -27 -3 -30 -30 -30 -27 0 -30 3 -30 30 0 25 -4 30 -24 30 -19 0 -25 -6
-28 -27 -2 -22 -9 -29 -30 -31 -28 -3 -28 -2 -28 52 0 56 0 56 -31 56 l-30 0
3 -52z m286 -85 c-2 -22 -9 -29 -30 -31 -25 -3 -28 0 -28 27 0 28 3 31 31 31
27 0 30 -3 27 -27z"/>
<path d="M170 1310 l0 -80 30 0 30 0 0 80 0 80 -30 0 -30 0 0 -80z"/>
<path d="M450 1310 c0 -18 7 -20 55 -20 48 0 55 2 55 20 0 18 -7 20 -55 20
-48 0 -55 -2 -55 -20z"/>
<path d="M680 1310 c0 -13 7 -20 20 -20 13 0 20 7 20 20 0 13 -7 20 -20 20
-13 0 -20 -7 -20 -20z"/>
<path d="M400 1255 c0 -20 5 -25 25 -25 20 0 25 5 25 25 0 20 -5 25 -25 25
-20 0 -25 -5 -25 -25z"/>
<path d="M570 1255 c0 -24 3 -25 55 -25 52 0 55 1 55 25 0 24 -3 25 -55 25
-52 0 -55 -1 -55 -25z"/>
<path d="M720 1255 c0 -25 1 -25 85 -25 l85 0 0 -30 0 -30 -105 0 -105 0 0
-55 c0 -48 2 -55 20 -55 16 0 20 -7 20 -30 0 -23 -5 -30 -19 -30 -14 0 -21 8
-23 28 -2 21 -9 28 -30 30 -27 3 -28 6 -28 58 0 51 -2 54 -24 54 -19 0 -25 -6
-28 -27 -2 -22 -9 -29 -30 -31 -22 -3 -28 -9 -28 -28 0 -20 -5 -24 -30 -24
-25 0 -30 4 -30 25 0 24 -3 25 -55 25 -52 0 -55 -2 -55 -24 0 -19 6 -25 28
-28 21 -2 28 -9 30 -30 l3 -28 -115 0 -116 0 0 -25 c0 -26 -1 -26 80 -29 30
-1 35 -5 38 -28 3 -22 9 -28 28 -28 24 0 24 -2 24 -85 0 -84 0 -85 -25 -85
-18 0 -25 -5 -25 -20 0 -16 -7 -20 -30 -20 -27 0 -30 -3 -30 -30 0 -30 1 -30
55 -30 l55 0 0 50 c0 49 1 50 30 50 29 0 30 -1 30 -50 l0 -50 80 0 80 0 0 30
c0 30 -1 30 -55 30 -48 0 -55 2 -55 20 0 18 7 20 85 20 l85 0 0 -105 0 -105
30 0 30 0 0 105 0 105 50 0 50 0 0 -50 c0 -49 -1 -50 -30 -50 l-30 0 0 -85 c0
-78 -2 -85 -20 -85 -16 0 -20 -7 -20 -30 0 -27 -3 -30 -30 -30 -29 0 -30 -1
-30 -50 0 -49 1 -50 30 -50 25 0 30 4 30 25 0 25 1 25 80 25 79 0 80 0 80 -25
l0 -25 110 0 110 0 0 25 c0 20 5 25 25 25 20 0 25 5 25 25 0 24 -3 25 -55 25
-52 0 -55 -1 -55 -25 0 -21 -5 -25 -30 -25 -30 0 -30 1 -30 55 0 52 -1 55 -25
55 -21 0 -25 -5 -25 -30 0 -30 -1 -30 -55 -30 -54 0 -55 0 -55 30 0 25 4 30
24 30 19 0 25 6 28 28 3 25 7 27 56 30 52 3 53 2 56 -38 1 -9 13 -16 29 -18
27 -3 27 -2 27 52 0 52 -1 55 -27 58 -22 2 -29 9 -31 31 -3 21 -9 27 -28 27
-20 0 -24 5 -24 30 l0 30 85 0 85 0 0 -30 c0 -27 -3 -30 -30 -30 -25 0 -30 -4
-30 -25 0 -22 4 -24 58 -27 l57 -3 3 -83 3 -83 52 3 c44 3 52 6 52 23 0 14 -8
21 -27 23 l-28 3 0 115 0 115 58 -3 57 -3 3 -52 c3 -44 6 -53 22 -53 16 0 19
9 22 53 3 48 5 52 31 55 19 2 27 9 27 23 0 14 -7 19 -30 19 -27 0 -30 3 -30
30 0 25 -4 30 -25 30 l-25 0 0 110 0 110 -25 0 c-24 0 -24 -2 -27 -82 -3 -82
-3 -83 -30 -86 -22 -3 -28 -9 -28 -28 0 -20 5 -24 30 -24 27 0 30 -3 30 -30
l0 -30 -85 0 -85 0 0 55 c0 54 0 55 -30 55 -27 0 -30 3 -30 30 0 27 3 30 30
30 30 0 30 0 30 60 0 32 -5 71 -12 85 -11 23 -16 25 -85 25 l-73 0 0 55 c0 52
1 55 25 55 20 0 25 5 25 26 0 17 6 28 19 31 17 4 18 9 9 29 -11 23 -14 24
-130 24 l-118 0 0 -25z m-152 -227 c3 -22 9 -28 28 -28 20 0 24 -5 24 -30 0
-25 -4 -30 -25 -30 -20 0 -25 -5 -25 -25 0 -21 -5 -25 -30 -25 -25 0 -30 -4
-30 -24 0 -19 6 -25 28 -28 21 -2 28 -9 30 -30 l3 -28 -90 0 -91 0 0 55 c0 52
-1 55 -26 55 -22 0 -25 4 -22 27 2 22 8 28 28 28 20 0 26 -6 28 -28 3 -21 9
-27 27 -27 18 0 24 6 27 28 3 26 5 27 56 26 51 -1 52 0 52 27 0 24 -4 29 -25
29 -21 0 -25 5 -25 31 0 27 3 30 28 27 21 -2 28 -9 30 -30z m381 -40 c-5 -40
1 -50 26 -46 22 5 25 2 25 -23 0 -24 -4 -29 -24 -29 -19 0 -25 -6 -28 -27 -2
-22 -9 -29 -30 -31 -25 -3 -28 0 -28 27 0 26 4 31 25 31 20 0 25 5 25 25 l0
25 -110 0 -110 0 0 30 0 30 115 0 c87 0 115 -3 114 -12z m-269 -153 c0 -54 0
-55 -30 -55 -30 0 -30 1 -30 55 0 54 0 55 30 55 30 0 30 -1 30 -55z m160 0 l0
-55 -60 0 -60 0 0 30 c0 27 3 30 30 30 25 0 30 4 30 25 0 21 5 25 30 25 30 0
30 -1 30 -55z m160 -85 c0 -27 -3 -30 -30 -30 -27 0 -30 3 -30 30 0 27 3 30
30 30 27 0 30 -3 30 -30z m-162 -157 c-2 -22 -9 -29 -30 -31 -25 -3 -28 0 -28
27 0 28 3 31 31 31 27 0 30 -3 27 -27z"/>
<path d="M510 1195 c0 -20 5 -25 25 -25 20 0 25 5 25 25 0 20 -5 25 -25 25
-20 0 -25 -5 -25 -25z"/>
<path d="M1680 1145 c0 -23 3 -25 50 -25 47 0 50 2 50 25 0 23 -3 25 -50 25
-47 0 -50 -2 -50 -25z"/>
<path d="M2000 1140 c0 -27 -3 -30 -30 -30 -25 0 -30 -4 -30 -25 0 -18 -5 -25
-20 -25 -16 0 -20 -7 -20 -30 0 -30 -1 -30 -55 -30 -54 0 -55 -1 -55 -29 0
-27 1 -28 53 -27 49 0 52 -1 55 -26 3 -23 -1 -27 -25 -30 -20 -2 -29 -9 -31
-25 -3 -20 1 -23 27 -23 28 0 31 -3 31 -30 0 -30 -1 -30 -55 -30 -54 0 -55 0
-55 -30 0 -30 -1 -30 -55 -30 l-55 0 0 -50 c0 -47 2 -50 25 -50 20 0 25 -5 25
-25 0 -20 5 -25 25 -25 20 0 25 5 25 25 0 21 5 25 30 25 25 0 30 -4 30 -25 0
-21 5 -25 30 -25 25 0 30 4 30 25 0 18 5 25 20 25 16 0 20 -7 20 -30 0 -23 -4
-30 -20 -30 -15 0 -20 -7 -20 -24 0 -19 -6 -25 -27 -28 -28 -3 -28 -4 -31 -86
-3 -80 -3 -82 -27 -82 -20 0 -25 -5 -25 -25 0 -20 5 -25 25 -25 20 0 25 5 25
25 0 21 5 25 30 25 25 0 30 -4 30 -25 0 -18 5 -25 20 -25 17 0 20 7 20 50 0
43 -3 50 -20 50 -18 0 -20 7 -20 60 0 53 2 60 20 60 18 0 20 -7 20 -55 l0 -54
113 -3 112 -3 3 -27 c3 -25 0 -28 -27 -28 -26 0 -31 -4 -31 -25 0 -21 5 -25
30 -25 25 0 30 4 30 25 0 20 5 25 25 25 l25 0 0 140 0 140 30 0 c25 0 30 -4
30 -24 0 -19 6 -25 28 -28 l27 -3 3 -112 c3 -113 3 -113 27 -113 20 0 25 -5
25 -25 0 -21 5 -25 30 -25 29 0 30 1 30 50 0 49 -1 50 -30 50 -27 0 -30 3 -30
30 0 27 3 30 31 30 27 0 30 3 27 28 -2 21 -9 28 -31 30 -24 3 -28 7 -25 30 2
21 9 28 31 30 21 3 27 9 27 28 0 23 -3 24 -60 24 l-60 0 0 80 c0 79 0 80 -25
80 l-25 0 0 110 0 110 25 0 c24 0 25 3 25 55 l0 55 -80 0 c-78 0 -80 -1 -80
-24 0 -19 6 -25 28 -28 21 -2 28 -9 30 -30 3 -25 0 -28 -27 -28 -31 0 -31 0
-31 -55 0 -54 0 -55 -30 -55 -27 0 -30 -3 -30 -30 0 -25 -4 -30 -25 -30 -24 0
-25 -3 -25 -55 0 -54 0 -55 -30 -55 l-30 0 0 60 c0 57 1 60 25 60 20 0 25 5
25 25 0 20 -5 25 -25 25 -24 0 -25 3 -25 55 0 54 0 55 30 55 27 0 30 -3 30
-31 0 -26 3 -30 23 -27 19 3 22 10 25 61 l3 57 -31 0 c-30 0 -30 0 -30 55 0
52 -1 55 -25 55 -21 0 -25 -5 -25 -30z m0 -110 c0 -27 -3 -30 -30 -30 -27 0
-30 3 -30 30 0 27 3 30 30 30 27 0 30 -3 30 -30z m228 -252 l3 -58 -31 0 c-23
0 -30 -4 -30 -20 0 -16 -7 -20 -30 -20 -23 0 -30 4 -30 20 0 16 7 20 30 20
l30 0 0 61 c0 60 0 60 28 57 26 -3 27 -6 30 -60z m-288 -48 c0 -43 -3 -50 -20
-50 -16 0 -20 -7 -20 -30 0 -27 -3 -30 -30 -30 -27 0 -30 3 -30 30 0 27 3 30
30 30 29 0 30 1 30 50 0 43 3 50 20 50 17 0 20 -7 20 -50z m230 -195 l0 -85
-85 0 -85 0 0 85 0 85 85 0 85 0 0 -85z"/>
<path d="M2060 535 c0 -20 5 -25 25 -25 20 0 25 5 25 25 0 20 -5 25 -25 25
-20 0 -25 -5 -25 -25z"/>
<path d="M2110 1145 c0 -21 5 -25 30 -25 25 0 30 4 30 25 0 21 -5 25 -30 25
-25 0 -30 -4 -30 -25z"/>
<path d="M1560 1085 c0 -20 -5 -25 -25 -25 -21 0 -25 -5 -25 -30 0 -25 4 -30
25 -30 24 0 25 -3 25 -55 l0 -55 -55 0 c-54 0 -55 0 -55 -30 0 -26 -4 -30 -28
-30 -24 0 -28 -4 -27 -22 1 -20 8 -23 53 -26 49 -3 51 -2 54 25 2 22 9 29 31
31 21 3 27 9 27 28 0 20 5 24 30 24 30 0 30 -1 30 -55 0 -52 1 -55 24 -55 23
0 25 4 28 53 3 48 5 52 31 55 21 3 27 9 27 28 0 22 -3 24 -55 24 -54 0 -55 0
-55 30 l0 30 80 0 80 0 0 30 c0 30 -1 30 -55 30 -52 0 -55 1 -55 25 0 24 -3
25 -55 25 -52 0 -55 -1 -55 -25z m60 -55 c0 -27 -3 -30 -30 -30 -27 0 -30 3
-30 30 0 27 3 30 30 30 27 0 30 -3 30 -30z"/>
<path d="M1790 1085 c0 -20 5 -25 25 -25 20 0 25 5 25 25 0 20 -5 25 -25 25
-20 0 -25 -5 -25 -25z"/>
<path d="M1358 1057 c-62 -9 -68 -12 -68 -34 0 -18 5 -23 24 -23 19 0 25 -6
28 -27 2 -20 9 -29 26 -31 19 -3 22 1 22 27 0 28 3 31 29 31 25 0 30 -4 33
-27 2 -20 9 -29 26 -31 19 -3 22 1 22 27 0 26 -4 31 -25 31 -22 0 -25 4 -25
35 0 22 -5 34 -12 33 -7 0 -43 -6 -80 -11z"/>
<path d="M2397 1054 c-4 -4 -7 -18 -7 -31 0 -18 -5 -23 -25 -23 -24 0 -25 -3
-25 -55 0 -52 1 -55 25 -55 21 0 25 -5 25 -30 0 -25 -4 -30 -25 -30 -20 0 -25
-5 -25 -25 0 -24 3 -25 55 -25 l56 0 -3 138 c-3 129 -4 137 -23 140 -12 2 -24
0 -28 -4z"/>
<path d="M1138 983 c-15 -4 -18 -16 -18 -74 0 -67 1 -69 25 -69 24 0 25 2 25
75 0 41 -3 74 -7 74 -5 -1 -16 -3 -25 -6z"/>
<path d="M2604 906 c-8 -21 3 -36 27 -36 15 0 20 6 17 22 -4 27 -35 37 -44 14z"/>
<path d="M170 866 c0 -22 4 -26 31 -26 26 0 30 3 27 23 -2 16 -11 23 -30 25
-24 3 -28 0 -28 -22z"/>
<path d="M1340 865 c0 -20 5 -25 25 -25 20 0 25 5 25 25 0 20 -5 25 -25 25
-20 0 -25 -5 -25 -25z"/>
<path d="M230 805 c0 -20 5 -25 25 -25 20 0 25 5 25 25 0 20 -5 25 -25 25 -20
0 -25 -5 -25 -25z"/>
<path d="M177 774 c-4 -4 -7 -18 -7 -31 0 -19 5 -23 31 -23 27 0 30 3 27 28
-3 26 -34 43 -51 26z"/>
<path d="M1510 676 l0 -106 25 0 c20 0 25 5 25 25 0 21 5 25 30 25 l31 0 -3
78 -3 77 -52 3 -53 3 0 -105z"/>
<path d="M1399 671 c-5 -42 -3 -46 24 -49 26 -3 28 -1 25 25 -2 20 -9 29 -25
31 -13 2 -24 -1 -24 -7z"/>
<path d="M1230 535 c0 -20 5 -25 25 -25 20 0 25 5 25 25 0 20 -5 25 -25 25
-20 0 -25 -5 -25 -25z"/>
<path d="M1340 535 c0 -20 5 -25 25 -25 20 0 25 5 25 25 0 20 -5 25 -25 25
-20 0 -25 -5 -25 -25z"/>
<path d="M1450 536 c0 -19 -6 -25 -27 -28 -22 -2 -28 -8 -28 -28 0 -20 6 -26
28 -28 24 -3 27 0 27 27 0 26 4 31 25 31 20 0 25 5 25 25 0 20 -5 25 -25 25
-20 0 -25 -5 -25 -24z"/>
<path d="M1790 535 c0 -20 5 -25 25 -25 20 0 25 5 25 25 0 20 -5 25 -25 25
-20 0 -25 -5 -25 -25z"/>
<path d="M180 530 c-18 -18 -20 -33 -20 -175 0 -206 -12 -195 198 -195 141 0
161 2 175 18 24 27 25 332 1 356 -13 13 -43 16 -175 16 -146 0 -161 -2 -179
-20z m318 -172 l3 -138 -141 0 -140 0 0 140 0 141 138 -3 137 -3 3 -137z"/>
<path d="M260 365 l0 -95 95 0 95 0 0 95 0 95 -95 0 -95 0 0 -95z"/>
<path d="M1290 480 c0 -23 4 -30 20 -30 16 0 20 7 20 30 0 23 -4 30 -20 30
-16 0 -20 -7 -20 -30z"/>
<path d="M1510 480 c0 -25 4 -30 25 -30 21 0 25 -5 25 -30 0 -25 -4 -30 -25
-30 -20 0 -25 -5 -25 -25 0 -21 -5 -25 -30 -25 -25 0 -30 4 -30 25 0 20 -5 25
-24 25 -24 0 -41 -23 -30 -41 3 -5 16 -9 30 -9 19 0 24 -5 24 -25 0 -24 3 -25
55 -25 54 0 55 0 55 -30 0 -25 -4 -30 -25 -30 -21 0 -25 -5 -25 -30 0 -25 4
-30 25 -30 21 0 25 5 25 30 0 27 3 30 30 30 27 0 30 -3 30 -30 0 -30 0 -30 56
-30 54 0 55 0 52 28 -2 21 -9 28 -30 30 -22 3 -28 9 -28 28 0 19 -5 24 -25 24
-21 0 -25 5 -25 30 l0 30 80 0 80 0 0 55 c0 52 -1 55 -25 55 -21 0 -25 5 -25
30 l0 30 -110 0 -110 0 0 -30z m220 -60 c0 -25 -4 -30 -25 -30 -14 0 -28 7
-31 15 -10 25 4 45 31 45 21 0 25 -5 25 -30z"/>
<path d="M1340 425 c0 -20 5 -25 25 -25 20 0 25 5 25 25 0 20 -5 25 -25 25
-20 0 -25 -5 -25 -25z"/>
<path d="M1290 365 c0 -18 5 -25 20 -25 15 0 20 7 20 25 0 18 -5 25 -20 25
-15 0 -20 -7 -20 -25z"/>
<path d="M1120 315 c0 -20 5 -25 25 -25 20 0 25 5 25 25 0 20 -5 25 -25 25
-20 0 -25 -5 -25 -25z"/>
<path d="M2228 313 c-2 -22 -9 -29 -30 -31 -22 -3 -28 -9 -28 -27 0 -18 6 -24
28 -27 21 -2 28 -9 30 -30 3 -22 9 -28 28 -28 24 0 24 2 24 85 0 83 0 85 -24
85 -19 0 -25 -6 -28 -27z"/>
<path d="M780 255 c0 -23 -3 -25 -50 -25 -49 0 -50 -1 -50 -30 l0 -30 75 0 75
0 0 55 c0 52 -1 55 -25 55 -20 0 -25 -5 -25 -25z"/>
<path d="M1170 255 c0 -20 -5 -25 -25 -25 -21 0 -25 -5 -25 -30 0 -25 4 -30
25 -30 21 0 25 5 25 30 l0 31 58 -3 c54 -3 57 -4 60 -30 2 -20 9 -28 22 -28
13 0 20 8 22 28 2 21 9 28 31 30 21 3 27 9 27 28 0 24 0 24 -110 24 l-110 0 0
-25z"/>
<path d="M1940 256 c0 -23 -5 -25 -47 -28 -44 -3 -48 -5 -48 -28 0 -24 2 -25
78 -28 l77 -3 0 56 c0 54 0 55 -30 55 -25 0 -30 -4 -30 -24z"/>
<path d="M2340 225 c0 -52 1 -55 25 -55 24 0 25 3 25 55 0 52 -1 55 -25 55
-24 0 -25 -3 -25 -55z"/>
<path d="M1007 224 c-4 -4 -7 -18 -7 -31 0 -21 4 -24 28 -21 21 2 27 8 27 28
0 18 -6 26 -20 28 -12 2 -24 0 -28 -4z"/>
<path d="M1399 220 c-5 -40 -3 -45 24 -48 24 -3 27 0 27 27 0 26 -4 31 -25 31
-14 0 -26 -4 -26 -10z"/>
</g>
</svg>
